<?xml version="1.0" encoding="utf-8"?>
<!-- Generator: Adobe Illustrator 27.0.0, SVG Export Plug-In . SVG Version: 6.00 Build 0)  -->
<svg version="1.1" id="레이어_1" xmlns="http://www.w3.org/2000/svg" xmlns:xlink="http://www.w3.org/1999/xlink" x="0px"
	 y="0px" viewBox="0 0 67.37 27.19" style="enable-background:new 0 0 67.37 27.19;" xml:space="preserve">
<style type="text/css">
	.st0{fill:#1E254A;}
	.st1{fill:#CD5B47;}
	.st2{fill:#5C697B;}
</style>
<g>
	<polygon class="st0" points="13.69,0.06 9.5,0.06 0,19 14,19 	"/>
	<polygon class="st1" points="14.25,0.06 18.56,7.31 18.56,0 	"/>
	<path class="st0" d="M47.7,9.17c1.17-1.6,2.65-2.67,4.45-3.2c1.78-0.53,3.35-0.37,4.73,0.47c1.38,0.84,2.14,2.13,2.28,3.86
		c0.14,1.73-0.38,3.4-1.56,5c-1.18,1.6-2.66,2.67-4.43,3.2c-1.8,0.54-3.38,0.38-4.75-0.46c-1.37-0.84-2.13-2.13-2.27-3.86
		C46.01,12.44,46.52,10.77,47.7,9.17z M49.68,10.27c-0.7,1-1,2.04-0.91,3.12c0.09,1.09,0.54,1.9,1.37,2.45
		c0.82,0.54,1.77,0.65,2.84,0.33c1.07-0.32,1.96-0.98,2.66-1.97c0.7-1,1-2.04,0.91-3.12c-0.09-1.09-0.54-1.9-1.37-2.45
		c-0.82-0.54-1.77-0.65-2.84-0.33C51.26,8.61,50.38,9.27,49.68,10.27z"/>
	<path class="st2" d="M22.69,11"/>
	<path class="st0" d="M30.03,6.36c-0.77-0.78-1.71-1.17-2.83-1.17l-6.71-0.01l-2.88,13.55l3.12,0l1.11-5.22h0l0.68-3.28l0.01,0.02
		l0.52-2.46l3.13,0c0.42,0,0.81,0.12,1.15,0.36c0.35,0.24,0.46,0.65,0.33,1.24c-0.12,0.56-0.4,0.96-0.85,1.18
		c-0.45,0.23-0.88,0.34-1.3,0.34l-2.65,0l1.33,2.61l1.2,0c1.12,0,2.24-0.38,3.34-1.15c1.11-0.77,1.79-1.76,2.05-2.98
		C31.05,8.15,30.8,7.14,30.03,6.36z"/>
	<rect x="39.87" y="18.09" class="st2" width="3.46" height="0.16"/>
	<g>
		<polygon class="st0" points="35.71,11 35.71,10.91 35.7,10.91 		"/>
		<path class="st0" d="M44.26,6.64c-0.87-0.73-1.94-1.1-3.21-1.1l-7.59-0.01l-3.26,12.7l3.53,0l1.41-5.49l-0.02-0.02l0.54-2.1
			l0.01,0.09l0.77-2.73l3.91,0c0.53,0,1.01,0.11,1.44,0.34c0.43,0.22,0.57,0.61,0.42,1.16c-0.15,0.53-0.5,0.9-1.06,1.11
			c-0.56,0.21-1.1,0.32-1.63,0.32l-3.76,0l4.02,7.34l2.28,0l0,0l0.02,0l0.78,0l-0.01-0.02l0.24-0.01l0.31,0.03l-2.93-5.06
			c0.95-0.21,1.85-0.59,2.7-1.15c1.03-0.69,1.68-1.54,1.94-2.55C45.42,8.32,45.13,7.38,44.26,6.64z"/>
	</g>
	<g>
		<path d="M5.78,25.96H5.19L4.21,22.8H4.16l-0.97,3.16H2.6l-1.26-4.07h0.54l0.98,3.26h0.05l0.98-3.26h0.6l0.98,3.26h0.05l0.98-3.26
			h0.53L5.78,25.96z"/>
		<path d="M12.12,25.96h-0.59l-0.98-3.16h-0.05l-0.97,3.16H8.95l-1.26-4.07h0.54l0.98,3.26h0.05l0.98-3.26h0.6l0.98,3.26h0.05
			l0.98-3.26h0.53L12.12,25.96z"/>
		<path d="M18.47,25.96h-0.59L16.9,22.8h-0.05l-0.97,3.16h-0.59l-1.26-4.07h0.54l0.98,3.26h0.05l0.98-3.26h0.6l0.98,3.26h0.05
			l0.98-3.26h0.53L18.47,25.96z"/>
		<path d="M20.78,26.45v-0.86h0.9v0.86H20.78z"/>
		<path d="M26.43,25.97c-0.03-0.06-0.06-0.15-0.08-0.27c-0.02-0.12-0.04-0.25-0.04-0.38c-0.17,0.18-0.39,0.35-0.68,0.51
			c-0.29,0.16-0.6,0.25-0.94,0.26c-0.42,0.03-0.78-0.05-1.08-0.22c-0.3-0.17-0.47-0.44-0.51-0.79c-0.04-0.36,0.04-0.64,0.23-0.85
			c0.19-0.21,0.44-0.35,0.73-0.44c0.23-0.07,0.5-0.12,0.78-0.14c0.29-0.02,0.56-0.05,0.81-0.09c0.13-0.03,0.28-0.07,0.43-0.14
			c0.15-0.06,0.23-0.19,0.23-0.37c0-0.22-0.1-0.42-0.3-0.6c-0.2-0.18-0.5-0.27-0.91-0.27c-0.39,0-0.69,0.08-0.92,0.24
			c-0.22,0.16-0.33,0.37-0.32,0.64h-0.53c-0.04-0.41,0.12-0.73,0.48-0.98c0.35-0.25,0.78-0.37,1.28-0.37c0.48,0,0.9,0.12,1.25,0.36
			c0.35,0.24,0.53,0.57,0.53,1v2.22c0,0.18,0.02,0.33,0.05,0.46c0.03,0.12,0.05,0.19,0.06,0.2H26.43z M26.3,23.73
			c-0.06,0.05-0.14,0.09-0.23,0.13c-0.09,0.04-0.17,0.06-0.26,0.08c-0.17,0.04-0.41,0.07-0.71,0.1c-0.3,0.03-0.52,0.06-0.65,0.1
			c-0.28,0.08-0.49,0.18-0.62,0.33c-0.14,0.14-0.2,0.32-0.19,0.53c0.02,0.25,0.13,0.42,0.35,0.53c0.22,0.11,0.47,0.15,0.76,0.13
			c0.39-0.03,0.75-0.17,1.07-0.4c0.32-0.24,0.48-0.48,0.48-0.73V23.73z"/>
		<path d="M31.67,22.34c0.35,0.41,0.52,0.94,0.52,1.58c0,0.65-0.17,1.17-0.52,1.58c-0.35,0.41-0.81,0.61-1.38,0.61
			c-0.3,0-0.57-0.06-0.82-0.19c-0.25-0.13-0.45-0.31-0.6-0.54l-0.04,0.02v1.79h-0.54v-5.3h0.54v0.54l0.04,0.02
			c0.15-0.22,0.35-0.39,0.6-0.52c0.25-0.13,0.52-0.19,0.82-0.19C30.86,21.73,31.32,21.94,31.67,22.34z M31.23,25.15
			c0.25-0.31,0.38-0.72,0.38-1.22c0-0.5-0.13-0.91-0.38-1.23c-0.25-0.32-0.59-0.48-1.02-0.48c-0.43,0-0.76,0.16-1,0.48
			c-0.24,0.32-0.36,0.73-0.36,1.23c0,0.5,0.12,0.91,0.36,1.22c0.24,0.31,0.58,0.47,1,0.47C30.63,25.62,30.98,25.46,31.23,25.15z"/>
		<path d="M35.52,22.29c-0.12,0-0.25,0.01-0.4,0.03c-0.15,0.02-0.28,0.06-0.4,0.13c-0.24,0.13-0.42,0.31-0.54,0.52
			c-0.12,0.21-0.18,0.5-0.18,0.85v2.13h-0.54v-4.06H34v0.63l0.05,0.02c0.08-0.14,0.18-0.26,0.3-0.36c0.12-0.1,0.25-0.19,0.4-0.26
			c0.13-0.06,0.27-0.11,0.42-0.13c0.15-0.02,0.27-0.04,0.35-0.04V22.29z"/>
		<path d="M39.53,22.36c0.36,0.42,0.54,0.94,0.54,1.56c0,0.61-0.18,1.13-0.54,1.56c-0.36,0.42-0.85,0.64-1.47,0.64
			c-0.61,0-1.1-0.21-1.46-0.64c-0.36-0.42-0.54-0.94-0.54-1.56c0-0.62,0.18-1.14,0.54-1.56c0.36-0.42,0.84-0.62,1.46-0.62
			C38.68,21.74,39.17,21.95,39.53,22.36z M39.09,25.14c0.26-0.33,0.39-0.73,0.39-1.22c0-0.49-0.13-0.9-0.39-1.22
			c-0.26-0.32-0.6-0.48-1.03-0.48c-0.42,0-0.76,0.16-1.02,0.48c-0.26,0.32-0.39,0.73-0.39,1.22c0,0.49,0.13,0.89,0.39,1.22
			c0.26,0.33,0.6,0.49,1.02,0.49C38.49,25.63,38.83,25.47,39.09,25.14z"/>
		<path d="M44.69,22.34c0.35,0.41,0.52,0.94,0.52,1.58c0,0.65-0.17,1.17-0.52,1.58c-0.35,0.41-0.81,0.61-1.38,0.61
			c-0.3,0-0.57-0.06-0.82-0.19c-0.25-0.13-0.45-0.31-0.6-0.54l-0.04,0.02v1.79h-0.54v-5.3h0.54v0.54l0.04,0.02
			c0.15-0.22,0.35-0.39,0.6-0.52c0.25-0.13,0.52-0.19,0.82-0.19C43.89,21.73,44.35,21.94,44.69,22.34z M44.25,25.15
			c0.25-0.31,0.38-0.72,0.38-1.22c0-0.5-0.13-0.91-0.38-1.23c-0.25-0.32-0.59-0.48-1.02-0.48c-0.43,0-0.76,0.16-1,0.48
			c-0.24,0.32-0.36,0.73-0.36,1.23c0,0.5,0.12,0.91,0.36,1.22c0.24,0.31,0.58,0.47,1,0.47C43.66,25.62,44,25.46,44.25,25.15z"/>
		<path d="M46.48,25.95v-5.61h0.54v5.61H46.48z"/>
		<path d="M51.43,25.97v-0.62c-0.16,0.21-0.36,0.39-0.61,0.54c-0.25,0.14-0.55,0.22-0.91,0.22c-0.38,0-0.71-0.13-1.01-0.4
			c-0.29-0.26-0.44-0.63-0.44-1.11l0.01-2.71H49v2.56c0,0.37,0.1,0.66,0.3,0.86c0.2,0.2,0.47,0.29,0.81,0.29
			c0.38-0.01,0.69-0.14,0.94-0.38c0.25-0.24,0.38-0.52,0.38-0.84v-2.48h0.53v4.08H51.43z"/>
		<path d="M56.4,24.23c0.18,0.15,0.25,0.37,0.23,0.65c-0.03,0.34-0.2,0.63-0.5,0.87c-0.3,0.24-0.69,0.37-1.18,0.37
			c-0.71,0.01-1.19-0.16-1.46-0.5c-0.26-0.35-0.39-0.66-0.39-0.93h0.54c0.01,0.3,0.13,0.53,0.39,0.7c0.25,0.17,0.55,0.25,0.89,0.25
			c0.28,0,0.54-0.06,0.76-0.17c0.22-0.11,0.35-0.29,0.39-0.52c0.03-0.19-0.03-0.33-0.16-0.44c-0.13-0.11-0.29-0.2-0.48-0.28
			c-0.2-0.09-0.43-0.15-0.67-0.2c-0.24-0.05-0.45-0.1-0.63-0.16c-0.23-0.08-0.43-0.2-0.61-0.36c-0.18-0.16-0.26-0.38-0.25-0.65
			c0.02-0.29,0.16-0.56,0.43-0.8c0.27-0.24,0.66-0.36,1.17-0.36c0.56,0,0.97,0.15,1.24,0.46c0.27,0.3,0.39,0.59,0.38,0.86h-0.54
			c0-0.19-0.09-0.37-0.26-0.55c-0.17-0.18-0.45-0.27-0.84-0.27c-0.33,0-0.58,0.06-0.76,0.18c-0.18,0.12-0.27,0.29-0.28,0.49
			c-0.01,0.21,0.07,0.37,0.25,0.46c0.18,0.09,0.34,0.16,0.49,0.21c0.19,0.05,0.4,0.1,0.64,0.14c0.24,0.04,0.45,0.11,0.63,0.2
			C56.03,23.96,56.22,24.08,56.4,24.23z"/>
		<path d="M57.83,26.45v-0.86h0.9v0.86H57.83z"/>
		<path d="M63.63,25.96l-1.86-2.24c-0.05,0.04-0.17,0.14-0.36,0.3c-0.18,0.16-0.31,0.27-0.38,0.32v1.61h-0.54v-5.61h0.54v3.38
			l2.14-1.9h0.7l-1.72,1.57l2.13,2.56H63.63z"/>
		<path d="M67.37,22.29c-0.12,0-0.25,0.01-0.4,0.03c-0.15,0.02-0.28,0.06-0.4,0.13c-0.24,0.13-0.42,0.31-0.54,0.52
			c-0.12,0.21-0.18,0.5-0.18,0.85v2.13h-0.54v-4.06h0.54v0.63l0.05,0.02c0.08-0.14,0.18-0.26,0.3-0.36c0.12-0.1,0.25-0.19,0.4-0.26
			c0.13-0.06,0.27-0.11,0.42-0.13c0.15-0.02,0.27-0.04,0.35-0.04V22.29z"/>
	</g>
	<g>
		<path d="M63.63,8.23c-1.82,0-3.15-1.28-3.15-3.12s1.33-3.12,3.15-3.12c1.83,0,3.16,1.27,3.16,3.12
			C66.79,6.98,65.48,8.23,63.63,8.23z M63.64,2.17c-1.73,0-2.98,1.21-2.98,2.95c0,1.74,1.25,2.94,2.98,2.94
			c1.73,0,2.97-1.2,2.97-2.94C66.61,3.38,65.36,2.17,63.64,2.17z M64.59,7.02l-1.04-1.87h-0.58v1.4c0,0.24,0.24,0.31,0.45,0.31v0.17
			h-1.36V6.86c0.23,0,0.45-0.08,0.45-0.35V3.59c0-0.27-0.26-0.28-0.46-0.28l0.01-0.01V3.14h1.86c0.6,0,1.26,0.36,1.26,1.03
			c0,0.63-0.51,0.97-1.09,0.97l0.79,1.41c0.13,0.24,0.32,0.31,0.58,0.31v0.17H64.59z M63.42,3.32c-0.17,0-0.45,0.01-0.45,0.25v1.39
			h0.87c0.49,0,0.81-0.32,0.81-0.81C64.66,3.44,63.99,3.32,63.42,3.32z"/>
	</g>
</g>
</svg>
