<?xml version="1.0" encoding="utf-8"?>
<!-- Generator: Adobe Illustrator 27.0.0, SVG Export Plug-In . SVG Version: 6.00 Build 0)  -->
<svg version="1.1" id="레이어_1" xmlns="http://www.w3.org/2000/svg" xmlns:xlink="http://www.w3.org/1999/xlink" x="0px"
	 y="0px" viewBox="0 0 67.4 27.2" style="enable-background:new 0 0 67.4 27.2;" xml:space="preserve">
<style type="text/css">
	.st0{fill:#FFFFFF;}
	.st1{fill:#CD5B47;}
	.st2{fill:#5C697B;}
</style>
<g>
	<polygon class="st0" points="13.7,0.1 9.5,0.1 0,19 14,19 	"/>
	<polygon class="st1" points="14.2,0.1 18.6,7.3 18.6,0 	"/>
	<path class="st0" d="M47.7,9.2c1.2-1.6,2.7-2.7,4.5-3.2c1.8-0.5,3.3-0.4,4.7,0.5s2.1,2.1,2.3,3.9s-0.4,3.4-1.6,5s-2.7,2.7-4.4,3.2
		c-1.8,0.5-3.4,0.4-4.8-0.5c-1.4-0.8-2.1-2.1-2.3-3.9C46,12.4,46.5,10.8,47.7,9.2z M49.7,10.3c-0.7,1-1,2-0.9,3.1
		c0.1,1.1,0.5,1.9,1.4,2.4c0.8,0.5,1.8,0.6,2.8,0.3s2-1,2.7-2c0.7-1,1-2,0.9-3.1C56.5,10,56,9.2,55.2,8.6c-0.8-0.5-1.8-0.7-2.8-0.3
		C51.3,8.6,50.4,9.3,49.7,10.3z"/>
	<path class="st2" d="M22.7,11"/>
	<path class="st0" d="M30,6.4c-0.8-0.8-1.7-1.2-2.8-1.2l-6.7,0l-2.9,13.5h3.1l1.1-5.2l0,0l0.7-3.3l0,0l0.5-2.5h3.1
		c0.4,0,0.8,0.1,1.1,0.4c0.4,0.2,0.5,0.6,0.3,1.2c-0.1,0.6-0.4,1-0.9,1.2c-0.5,0.2-0.9,0.3-1.3,0.3h-2.6l1.3,2.6h1.2
		c1.1,0,2.2-0.4,3.3-1.1c1.1-0.8,1.8-1.8,2-3C31,8.1,30.8,7.1,30,6.4z"/>
	<rect x="39.9" y="18.1" class="st2" width="3.5" height="0.2"/>
	<g>
		<polygon class="st0" points="35.7,11 35.7,10.9 35.7,10.9 		"/>
		<path class="st0" d="M44.3,6.6c-0.9-0.7-1.9-1.1-3.2-1.1l-7.6,0l-3.3,12.7h3.5l1.4-5.5l0,0l0.5-2.1l0,0.1L36.4,8h3.9
			c0.5,0,1,0.1,1.4,0.3c0.4,0.2,0.6,0.6,0.4,1.2c-0.2,0.5-0.5,0.9-1.1,1.1s-1.1,0.3-1.6,0.3h-3.8l4,7.3h2.3l0,0h0h0.8l0,0l0.2,0
			l0.3,0l-2.9-5.1c1-0.2,1.8-0.6,2.7-1.1c1-0.7,1.7-1.5,1.9-2.6C45.4,8.3,45.1,7.4,44.3,6.6z"/>
	</g>
	<g>
		<path class="st0" d="M5.8,26H5.2l-1-3.2H4.2l-1,3.2H2.6l-1.3-4.1h0.5l1,3.3h0l1-3.3h0.6l1,3.3h0.1l1-3.3H7L5.8,26z"/>
		<path class="st0" d="M12.1,26h-0.6l-1-3.2h-0.1l-1,3.2H8.9l-1.3-4.1h0.5l1,3.3h0.1l1-3.3h0.6l1,3.3h0.1l1-3.3h0.5L12.1,26z"/>
		<path class="st0" d="M18.5,26h-0.6l-1-3.2h0l-1,3.2h-0.6L14,21.9h0.5l1,3.3h0.1l1-3.3h0.6l1,3.3h0l1-3.3h0.5L18.5,26z"/>
		<path class="st0" d="M20.8,26.5v-0.9h0.9v0.9H20.8z"/>
		<path class="st0" d="M26.4,26c0-0.1-0.1-0.1-0.1-0.3s0-0.2,0-0.4c-0.2,0.2-0.4,0.4-0.7,0.5s-0.6,0.2-0.9,0.3c-0.4,0-0.8,0-1.1-0.2
			s-0.5-0.4-0.5-0.8c0-0.4,0-0.6,0.2-0.9c0.2-0.2,0.4-0.4,0.7-0.4c0.2-0.1,0.5-0.1,0.8-0.1c0.3,0,0.6,0,0.8-0.1
			c0.1,0,0.3-0.1,0.4-0.1c0.1-0.1,0.2-0.2,0.2-0.4c0-0.2-0.1-0.4-0.3-0.6c-0.2-0.2-0.5-0.3-0.9-0.3c-0.4,0-0.7,0.1-0.9,0.2
			c-0.2,0.2-0.3,0.4-0.3,0.6h-0.5c0-0.4,0.1-0.7,0.5-1c0.4-0.2,0.8-0.4,1.3-0.4c0.5,0,0.9,0.1,1.2,0.4s0.5,0.6,0.5,1v2.2
			c0,0.2,0,0.3,0,0.5c0,0.1,0,0.2,0.1,0.2L26.4,26L26.4,26z M26.3,23.7c-0.1,0-0.1,0.1-0.2,0.1c-0.1,0-0.2,0.1-0.3,0.1
			c-0.2,0-0.4,0.1-0.7,0.1s-0.5,0.1-0.6,0.1c-0.3,0.1-0.5,0.2-0.6,0.3c-0.1,0.1-0.2,0.3-0.2,0.5c0,0.2,0.1,0.4,0.4,0.5
			c0.2,0.1,0.5,0.1,0.8,0.1c0.4,0,0.8-0.2,1.1-0.4c0.3-0.2,0.5-0.5,0.5-0.7V23.7z"/>
		<path class="st0" d="M31.7,22.3c0.4,0.4,0.5,0.9,0.5,1.6c0,0.6-0.2,1.2-0.5,1.6c-0.4,0.4-0.8,0.6-1.4,0.6c-0.3,0-0.6-0.1-0.8-0.2
			c-0.2-0.1-0.5-0.3-0.6-0.5l0,0v1.8h-0.5v-5.3h0.5v0.5l0,0c0.1-0.2,0.4-0.4,0.6-0.5c0.2-0.1,0.5-0.2,0.8-0.2
			C30.9,21.7,31.3,21.9,31.7,22.3z M31.2,25.1c0.2-0.3,0.4-0.7,0.4-1.2s-0.1-0.9-0.4-1.2s-0.6-0.5-1-0.5s-0.8,0.2-1,0.5
			s-0.4,0.7-0.4,1.2s0.1,0.9,0.4,1.2s0.6,0.5,1,0.5C30.6,25.6,31,25.5,31.2,25.1z"/>
		<path class="st0" d="M35.5,22.3c-0.1,0-0.2,0-0.4,0s-0.3,0.1-0.4,0.1c-0.2,0.1-0.4,0.3-0.5,0.5c-0.1,0.2-0.2,0.5-0.2,0.9V26h-0.5
			v-4.1H34v0.6l0,0c0.1-0.1,0.2-0.3,0.3-0.4s0.2-0.2,0.4-0.3c0.1-0.1,0.3-0.1,0.4-0.1c0.2,0,0.3,0,0.3,0
			C35.5,21.8,35.5,22.3,35.5,22.3z"/>
		<path class="st0" d="M39.5,22.4c0.4,0.4,0.5,0.9,0.5,1.6c0,0.6-0.2,1.1-0.5,1.6c-0.4,0.4-0.8,0.6-1.5,0.6c-0.6,0-1.1-0.2-1.5-0.6
			c-0.4-0.4-0.5-0.9-0.5-1.6c0-0.6,0.2-1.1,0.5-1.6s0.8-0.6,1.5-0.6C38.7,21.7,39.2,22,39.5,22.4z M39.1,25.1
			c0.3-0.3,0.4-0.7,0.4-1.2s-0.1-0.9-0.4-1.2s-0.6-0.5-1-0.5c-0.4,0-0.8,0.2-1,0.5c-0.3,0.3-0.4,0.7-0.4,1.2s0.1,0.9,0.4,1.2
			s0.6,0.5,1,0.5C38.5,25.6,38.8,25.5,39.1,25.1z"/>
		<path class="st0" d="M44.7,22.3c0.3,0.4,0.5,0.9,0.5,1.6c0,0.6-0.2,1.2-0.5,1.6c-0.3,0.4-0.8,0.6-1.4,0.6c-0.3,0-0.6-0.1-0.8-0.2
			c-0.2-0.1-0.5-0.3-0.6-0.5l0,0v1.8h-0.5v-5.3h0.5v0.5l0,0c0.2-0.2,0.3-0.4,0.6-0.5c0.2-0.1,0.5-0.2,0.8-0.2
			C43.9,21.7,44.3,21.9,44.7,22.3z M44.2,25.1c0.2-0.3,0.4-0.7,0.4-1.2s-0.1-0.9-0.4-1.2s-0.6-0.5-1-0.5s-0.8,0.2-1,0.5
			s-0.4,0.7-0.4,1.2s0.1,0.9,0.4,1.2s0.6,0.5,1,0.5C43.7,25.6,44,25.5,44.2,25.1z"/>
		<path class="st0" d="M46.5,26v-5.6H47V26H46.5z"/>
		<path class="st0" d="M51.4,26v-0.6c-0.2,0.2-0.4,0.4-0.6,0.5c-0.2,0.1-0.5,0.2-0.9,0.2c-0.4,0-0.7-0.1-1-0.4
			c-0.3-0.3-0.4-0.6-0.4-1.1l0-2.7H49v2.6c0,0.4,0.1,0.7,0.3,0.9s0.5,0.3,0.8,0.3c0.4,0,0.7-0.1,0.9-0.4s0.4-0.5,0.4-0.8v-2.5H52V26
			L51.4,26L51.4,26z"/>
		<path class="st0" d="M56.4,24.2c0.2,0.1,0.2,0.4,0.2,0.6c0,0.3-0.2,0.6-0.5,0.9c-0.3,0.2-0.7,0.4-1.2,0.4c-0.7,0-1.2-0.2-1.5-0.5
			c-0.3-0.4-0.4-0.7-0.4-0.9h0.5c0,0.3,0.1,0.5,0.4,0.7c0.2,0.2,0.5,0.2,0.9,0.2c0.3,0,0.5-0.1,0.8-0.2c0.2-0.1,0.3-0.3,0.4-0.5
			c0-0.2,0-0.3-0.2-0.4s-0.3-0.2-0.5-0.3c-0.2-0.1-0.4-0.1-0.7-0.2c-0.2,0-0.5-0.1-0.6-0.2c-0.2-0.1-0.4-0.2-0.6-0.4
			s-0.3-0.4-0.2-0.6c0-0.3,0.2-0.6,0.4-0.8s0.7-0.4,1.2-0.4c0.6,0,1,0.1,1.2,0.5c0.3,0.3,0.4,0.6,0.4,0.9H56c0-0.2-0.1-0.4-0.3-0.5
			c-0.2-0.2-0.5-0.3-0.8-0.3c-0.3,0-0.6,0.1-0.8,0.2c-0.2,0.1-0.3,0.3-0.3,0.5c0,0.2,0.1,0.4,0.2,0.5c0.2,0.1,0.3,0.2,0.5,0.2
			c0.2,0,0.4,0.1,0.6,0.1c0.2,0,0.5,0.1,0.6,0.2C56,24,56.2,24.1,56.4,24.2z"/>
		<path class="st0" d="M57.8,26.5v-0.9h0.9v0.9H57.8z"/>
		<path class="st0" d="M63.6,26l-1.9-2.2c0,0-0.2,0.1-0.4,0.3c-0.2,0.2-0.3,0.3-0.4,0.3v1.6h-0.5v-5.6H61v3.4l2.1-1.9h0.7l-1.7,1.6
			l2.1,2.6L63.6,26L63.6,26z"/>
		<path class="st0" d="M67.4,22.3c-0.1,0-0.2,0-0.4,0s-0.3,0.1-0.4,0.1c-0.2,0.1-0.4,0.3-0.5,0.5c-0.1,0.2-0.2,0.5-0.2,0.9V26h-0.5
			v-4.1h0.5v0.6l0.1,0c0.1-0.1,0.2-0.3,0.3-0.4s0.2-0.2,0.4-0.3c0.1-0.1,0.3-0.1,0.4-0.1c0.2,0,0.3,0,0.3,0V22.3z"/>
	</g>
	<g>
		<path class="st0" d="M63.6,8.2c-1.8,0-3.2-1.3-3.2-3.1S61.8,2,63.6,2c1.8,0,3.2,1.3,3.2,3.1C66.8,7,65.5,8.2,63.6,8.2z M63.6,2.2
			c-1.7,0-3,1.2-3,2.9s1.2,2.9,3,2.9c1.7,0,3-1.2,3-2.9S65.4,2.2,63.6,2.2z M64.6,7l-1-1.9H63v1.4c0,0.2,0.2,0.3,0.5,0.3V7h-1.4V6.9
			c0.2,0,0.5-0.1,0.5-0.3V3.6c0-0.3-0.3-0.3-0.5-0.3l0,0V3.1h1.9c0.6,0,1.3,0.4,1.3,1c0,0.6-0.5,1-1.1,1l0.8,1.4
			c0.1,0.2,0.3,0.3,0.6,0.3V7L64.6,7L64.6,7z M63.4,3.3c-0.2,0-0.5,0-0.5,0.2V5h0.9c0.5,0,0.8-0.3,0.8-0.8C64.7,3.4,64,3.3,63.4,3.3
			z"/>
	</g>
</g>
</svg>
